<svg width="24" height="24" viewBox="94 5 38 38" fill="none" xmlns="http://www.w3.org/2000/svg">
<path d="M129.494 28.104C128.403 32.4785 125.62 36.2408 121.757 38.5638C117.893 40.8868 113.265 41.5804 108.89 40.492C99.7879 38.22 94.2399 29 96.5079 19.9C98.7759 10.798 107.988 5.24004 117.084 7.51004C126.208 9.75004 131.758 18.998 129.494 28.106V28.104Z" stroke="white" stroke-width="3"/>
<path d="M107.8 29.824L111.186 16.24M108.274 15.514L116.636 17.6C122.092 18.96 120.876 25.354 115.064 23.906C121.432 25.494 120.784 33.062 113.25 31.184C109.568 30.264 105.624 29.284 105.624 29.284M109.612 22.548L114.95 23.878M112.156 16.482L112.882 13.572M108.042 32.978L108.768 30.066M116.036 17.45L116.762 14.54M111.924 33.946L112.65 31.034" stroke="white" stroke-width="3" stroke-linecap="square" stroke-linejoin="round"/>
</svg> 