<svg width="360" height="457" viewBox="0 0 360 457" fill="none" xmlns="http://www.w3.org/2000/svg">
<path d="M275 66.9999C247.8 51.7999 108.333 73.3333 42 85.9999C106.667 72.3333 242.4 43.2 268 36C293.6 28.8 283.333 9 275 0L360 73C345.333 73 312 75.6 296 85.9999C276 98.9999 283 120 316 152C349 184 341 157 339 200C337.4 234.4 347 215 353 228C337.333 224.323 303 225.975 291 262C276 307.031 291 291 283 343C276.6 384.6 285.667 411 291 419C275.333 431.667 234.8 453 198 437C161.2 421 145.333 443.667 142 457C137.667 437 124 392 104 372C84 352 26.3333 336.333 0 331H53L142 372C156.667 383 189.6 405.8 204 409C222 413 247 394 262 362C277 330 249 290 262 253C275 216 303 225 316 210C329 195 275 164 275 120C275 76 309 85.9999 275 66.9999Z" fill="white" style="mix-blend-mode:soft-light"/>
</svg>
