<svg width="360" height="401" viewBox="0 0 360 401" fill="none" xmlns="http://www.w3.org/2000/svg">
<path d="M283.404 100.851C239.489 89.617 225.106 28.9362 223.404 -5.97079e-06C223.404 41.8723 203.83 51.4894 194.043 51.0638C215.745 67.6596 264 106.468 283.404 128.936C302.809 151.404 265.957 174.894 245.106 183.83C257.872 209.362 283.404 267.574 283.404 296.17C283.404 324.766 257.872 296.17 245.106 278.298C230.638 307.234 191.234 367.404 149.362 376.596C107.489 385.787 32.3404 355.745 1.56743e-05 339.574C32.3404 359.149 107.489 398.808 149.362 400.851C201.702 403.404 223.404 354.894 259.149 325.532C287.745 302.043 301.702 325.106 305.106 339.574C304.681 325.106 299.745 282.128 283.404 225.957C267.064 169.787 327.66 128.511 360 114.894C352.766 114.894 327.319 112.085 283.404 100.851Z" fill="white" style="mix-blend-mode:soft-light"/>
</svg>
