<svg width="220" height="48" viewBox="0 0 220 48" fill="none" xmlns="http://www.w3.org/2000/svg">
<path d="M8.927 35V26.3606H15.5182C15.9494 26.3606 16.4422 26.3298 17.012 26.2374C20.3384 25.7138 22.325 22.988 22.325 19.5846C22.325 16.1966 20.3384 13.4554 17.012 12.9472C16.4422 12.8548 15.9494 12.824 15.5182 12.824H7.156V35H8.927ZM8.927 14.5488H15.4874C15.8416 14.5488 16.3652 14.5796 16.858 14.6874C19.2604 15.1648 20.4616 17.3054 20.4616 19.5846C20.4616 21.8638 19.2604 24.0044 16.858 24.4972C16.3652 24.5896 15.8416 24.6204 15.4874 24.6204H8.927V14.5488ZM53.6724 35V33.2752H42.8924V12.824H41.1214V35H53.6724ZM73.4747 33.2752V24.6974H83.5617V22.9726H73.4747V14.5488H85.4097V12.824H71.7037V35H85.4097V33.2752H73.4747Z" fill="white"/>
<path d="M161.345 35V26.0064H168.86V21.8176H161.345V17.0128H170.708V12.824H157.156V35H161.345ZM192.8 35V21.756L199.237 35H200.716L207.153 21.756V35H211.064V12.824H207.307L199.976 27.5464L192.646 12.824H188.888V35H192.8Z" fill="white"/>
<path d="M129.494 28.104C128.403 32.4785 125.62 36.2408 121.757 38.5638C117.893 40.8868 113.265 41.5804 108.89 40.492C99.7879 38.22 94.2399 29 96.5079 19.9C98.7759 10.798 107.988 5.24004 117.084 7.51004C126.208 9.75004 131.758 18.998 129.494 28.106V28.104Z" stroke="white" stroke-width="2"/>
<path d="M107.8 29.824L111.186 16.24M108.274 15.514L116.636 17.6C122.092 18.96 120.876 25.354 115.064 23.906C121.432 25.494 120.784 33.062 113.25 31.184C109.568 30.264 105.624 29.284 105.624 29.284M109.612 22.548L114.95 23.878M112.156 16.482L112.882 13.572M108.042 32.978L108.768 30.066M116.036 17.45L116.762 14.54M111.924 33.946L112.65 31.034" stroke="white" stroke-width="2" stroke-linecap="square" stroke-linejoin="round"/>
</svg>
